<svg data-v-fde0c5aa="" xmlns="http://www.w3.org/2000/svg" viewBox="0 0 300 300" class="iconLeftSlogan"><!----><defs data-v-fde0c5aa=""><!----></defs><rect data-v-fde0c5aa="" fill="#F3E195" x="0" y="0" width="300px" height="300px" class="logo-background-square"></rect><defs data-v-fde0c5aa=""><!----></defs><g data-v-fde0c5aa="" id="7149223c-2d68-4584-8de5-ba223c807135" fill="#E96E75" transform="matrix(2.377852730393677,0,0,2.377852730393677,129.09921006896872,127.5993258457518)"><path d="M0.27 0.43L0.27 2.73L0.41 2.73C0.43 0.59 2.10 0.57 2.74 0.57L3.85 0.57L3.85 9.10C3.85 10.01 3.51 10.14 2.93 10.14L2.93 10.29L5.84 10.29L5.84 10.14C5.25 10.14 4.91 10.01 4.91 9.10L4.91 0.57L6.02 0.57C6.31 0.57 8.33 0.59 8.36 2.73L8.51 2.73L8.51 0.43ZM11.61 3.72C10.92 3.72 10.01 4.27 9.60 5.10L9.60 3.70L7.94 4.02L7.94 4.16C8.53 4.23 8.64 4.44 8.64 4.91L8.64 9.20C8.64 9.91 8.61 9.98 8.08 10.14L8.08 10.29L10.18 10.29L10.18 10.14C9.67 10.01 9.60 9.97 9.60 9.20L9.60 5.40C10.01 4.42 11.13 3.99 11.06 4.27C11.02 4.42 11.05 4.59 11.13 4.73C11.34 5.04 11.75 5.12 12.04 4.93C12.35 4.73 12.43 4.34 12.24 4.03C12.08 3.82 11.83 3.72 11.61 3.72ZM16.24 6.78C16.24 6.78 16.24 8.95 16.24 8.95C16.09 9.28 15.72 9.90 14.85 9.90C14.03 9.90 13.65 9.31 13.65 8.71C13.65 7.80 14.49 7.20 16.24 6.78ZM17.85 9.86C17.23 9.86 17.25 9.02 17.25 9.02L17.25 6.50C17.25 4.83 16.87 3.70 15.50 3.70C15.50 3.70 14.83 3.67 14.24 3.96C13.50 4.37 13.23 4.80 13.15 5.00C13.06 5.18 13.09 5.42 13.23 5.60C13.43 5.87 13.79 5.89 14.03 5.70C14.28 5.49 14.34 5.12 14.13 4.87C14.03 4.75 13.89 4.69 13.75 4.66C13.66 4.65 13.76 4.35 14.36 4.07C15.55 3.54 16.24 4.40 16.24 5.84L16.24 6.62C13.87 7.24 12.68 7.63 12.68 8.96C12.68 10.42 14.27 10.42 14.27 10.42C15.25 10.42 16.04 9.91 16.24 9.21C16.28 10.46 17.32 10.42 17.32 10.42C17.98 10.42 18.35 9.90 18.44 9.48L18.30 9.42C18.20 9.86 17.85 9.86 17.85 9.86ZM22.75 3.82L22.75 3.96C24.29 3.96 23.60 5.71 23.60 5.71L22.37 9.10L20.45 4.90C20.45 4.90 19.96 3.96 20.97 3.96L20.97 3.82L18.27 3.82L18.27 3.96C18.49 3.99 18.90 3.98 19.25 4.66C19.25 4.66 19.46 5.04 21.94 10.42L22.05 10.42L23.81 5.59C24.47 3.98 24.81 3.96 25.44 3.96L25.44 3.82ZM26.59 6.76C26.59 4.80 27.62 3.85 28.42 3.85C29.04 3.85 30.11 4.59 30.11 6.76ZM30.73 8.61C30.51 9.32 29.60 9.95 28.70 9.91C27.52 9.86 26.61 9.07 26.59 6.93L31.07 6.93C31.07 4.72 29.88 3.70 28.43 3.70C26.81 3.70 25.51 5.01 25.51 7.13C25.51 9.09 26.75 10.42 28.45 10.42C29.99 10.42 30.74 9.28 30.84 8.65ZM34.19 10.14C33.68 10.01 33.61 9.97 33.61 9.20L33.61 0.01L31.95 0.32L31.95 0.48C32.54 0.53 32.65 0.73 32.65 1.22L32.65 9.20C32.65 9.91 32.62 9.98 32.09 10.14L32.09 10.29L34.19 10.29L34.19 10.14ZM38.71 6.78C38.71 6.78 38.71 8.95 38.71 8.95C38.56 9.28 38.19 9.90 37.32 9.90C36.50 9.90 36.12 9.31 36.12 8.71C36.12 7.80 36.96 7.20 38.71 6.78ZM40.32 9.86C39.70 9.86 39.72 9.02 39.72 9.02L39.72 6.50C39.72 4.83 39.34 3.70 37.97 3.70C37.97 3.70 37.30 3.67 36.71 3.96C35.97 4.37 35.70 4.80 35.62 5.00C35.53 5.18 35.56 5.42 35.70 5.60C35.90 5.87 36.26 5.89 36.50 5.70C36.75 5.49 36.81 5.12 36.60 4.87C36.50 4.75 36.36 4.69 36.22 4.66C36.13 4.65 36.23 4.35 36.83 4.07C38.02 3.54 38.71 4.40 38.71 5.84L38.71 6.62C36.34 7.24 35.15 7.63 35.15 8.96C35.15 10.42 36.74 10.42 36.74 10.42C37.72 10.42 38.51 9.91 38.71 9.21C38.75 10.46 39.79 10.42 39.79 10.42C40.45 10.42 40.82 9.90 40.91 9.48L40.77 9.42C40.67 9.86 40.32 9.86 40.32 9.86ZM47.57 10.15C47.07 10.02 47.00 9.97 47.00 9.20L47.00 5.98C47.00 4.30 46.13 3.70 44.98 3.70C44.10 3.70 43.19 4.35 42.91 5.14L42.91 3.70L41.24 4.02L41.24 4.16C41.83 4.24 41.94 4.44 41.94 4.93L41.94 9.20C41.94 9.91 41.92 9.98 41.38 10.14L41.38 10.29L43.48 10.29L43.48 10.14C42.98 10.01 42.91 9.97 42.91 9.20L42.91 5.46C43.08 4.98 43.65 4.23 44.45 4.23C45.49 4.23 46.05 4.94 46.05 6.03L46.05 9.20C46.05 9.91 46.02 10.00 45.49 10.15L45.49 10.29L47.57 10.29L47.57 10.15ZM53.38 8.41C53.38 9.39 52.63 10.05 51.72 10.05C50.46 10.05 49.63 8.95 49.63 6.75C49.63 4.44 50.81 3.85 51.69 3.85C52.56 3.85 53.38 4.58 53.38 5.73ZM55.05 10.02C54.49 10.05 54.33 10.01 54.33 9.32L54.33 0.01L52.67 0.32L52.67 0.48C53.24 0.53 53.38 0.74 53.38 1.23L53.38 4.26C52.93 3.92 52.35 3.70 51.65 3.70C49.83 3.70 48.44 4.84 48.44 6.99C48.44 8.81 49.35 10.42 51.37 10.42C52.08 10.42 52.96 10.09 53.38 9.44L53.38 10.15C53.38 10.15 53.38 10.47 53.77 10.40L55.05 10.16Z"></path></g><defs data-v-fde0c5aa=""><!----></defs><g data-v-fde0c5aa="" id="5550ff71-6852-4a48-b141-20f803c281bc" stroke="none" fill="#E96E75" transform="matrix(0.9302650379966965,0,0,0.9302650379966965,30.18832437150923,101.62621802417179)"><switch><g><path d="M50 81.5c-16.3 0-29.5-13.2-29.5-29.5S33.7 22.5 50 22.5c6.8 0 13.5 2.4 18.8 6.7 3.3 2.7 6 6.2 7.8 10 .4.7 0 1.6-.7 2-.7.4-1.6 0-2-.7-1.7-3.4-4.1-6.5-7-9-4.7-3.9-10.7-6.1-16.9-6.1-14.6 0-26.5 11.9-26.5 26.5S35.4 78.5 50 78.5c10.3 0 19.7-6 24.1-15.4.3-.8 1.2-1.1 2-.7.8.3 1.1 1.2.7 2C72 74.8 61.5 81.5 50 81.5z"></path><path d="M27.7 71.1c-8.8 0-15-2.4-16.7-6.9-1.8-4.9 1.8-11.2 10.2-17.5.7-.5 1.6-.4 2.1.3s.4 1.6-.3 2.1c-7 5.3-10.4 10.6-9.2 14.1 2 5.4 15.8 7.3 35.6 1.2.8-.2 1.6.2 1.9 1 .2.8-.2 1.6-1 1.9-8.4 2.6-16.2 3.8-22.6 3.8zM87.6 37.8c-.6 0-1.2-.4-1.4-1-1.3-3.5-7.3-5.3-16.1-4.9h-2.3c-.8 0-1.5-.7-1.5-1.5s.7-1.5 1.5-1.5H70c10.4-.5 17.2 1.9 19 6.9.3.8-.1 1.6-.9 1.9-.2.1-.3.1-.5.1z"></path><path d="M50 67.1c-.2 0-.4 0-.6-.1l-7.3-3.4c-.8-.3-1.1-1.2-.7-2 .4-.8 1.2-1.1 2-.7l7.3 3.4c.8.3 1.1 1.2.7 2-.3.5-.8.8-1.4.8z"></path><path d="M46.6 74.4c-.2 0-.4 0-.6-.1-.8-.3-1.1-1.2-.7-2l3.4-7.3c.4-.8 1.2-1.1 2-.7.8.3 1.1 1.2.7 2L48 73.5c-.3.6-.8.9-1.4.9z"></path><g><path d="M58.6 64c-.2 0-.4 0-.6-.1l-12-5.5c-.6-.3-1-1-.8-1.7s.7-1.2 1.4-1.2l11.9-.4 4.3-2.6-6.7-7.2c-.3-.3-.4-.7-.4-1.1 0-.4.2-.8.5-1.1.2-.1 1.7-1.4 4.7-1.4 3.7 0 8 1.9 12.8 5.5l10.2-4.7c.6-.3 1.5-.4 2.5-.4 1.9 0 5.4.5 6.3 2.6.4.9.8 2.5-1 4-.9.7-2.3 1.4-4 2.2l-28.5 13c-.2.1-.4.1-.6.1zM53 58.3l5.6 2.5 27.7-12.6c1.5-.7 3.4-1.5 3.6-2 0 0 0-.1-.1-.2-.2-.3-1.7-.8-3.6-.8-.7 0-1.1.1-1.3.2l-11 5c-.5.2-1.1.2-1.6-.2-5.6-4.5-9.4-5.4-11.6-5.4-.4 0-.8 0-1.2.1l6.5 6.9c.3.3.5.8.4 1.2-.1.4-.3.8-.7 1.1l-6.2 3.8c-.2.1-.5.2-.7.2l-5.8.2z"></path></g></g></switch></g><defs data-v-fde0c5aa=""><!----></defs><g data-v-fde0c5aa="" id="930764fa-1473-42da-a0df-4cb10b73391c" fill="#E96E75" transform="matrix(0.6296648752494266,0,0,0.6296648752494266,129.58381411287425,160.55086742698833)"><path d="M0.25 5.01C0.25 5.17 0.43 5.17 0.56 5.17C0.71 5.17 0.76 5.15 0.77 4.97L0.88 3.89C0.90 3.81 1.44 3.75 2.20 3.75L4.19 3.75C4.24 3.75 4.27 4.35 4.27 4.97C4.27 6.43 4.21 12.18 4.09 12.18L3.22 12.18C3.00 12.18 2.95 12.19 2.95 12.39C2.95 12.63 2.97 12.68 3.16 12.68C3.49 12.68 4.47 12.64 4.89 12.64C5.31 12.64 6.24 12.68 6.57 12.68C6.73 12.68 6.76 12.61 6.76 12.40C6.76 12.24 6.73 12.18 6.57 12.18L5.57 12.18C5.54 12.18 5.54 11.76 5.54 11.31C5.54 9.56 5.63 5.96 5.63 5.92C5.64 5.18 5.64 3.75 5.74 3.75L7.35 3.75C8.06 3.75 8.89 3.78 8.89 3.85C8.89 3.99 8.85 4.90 8.85 4.97C8.85 5.12 8.92 5.17 9.10 5.17C9.30 5.17 9.37 5.17 9.37 5.03C9.37 3.93 9.42 3.40 9.42 3.14C9.42 2.94 9.34 2.94 9.14 2.94C8.99 2.94 8.93 2.98 8.92 3.16C8.92 3.23 8.27 3.28 7.43 3.28L2.44 3.28C1.78 3.28 0.97 3.28 0.97 3.21L0.97 3.07C0.97 2.94 0.84 2.94 0.74 2.94C0.52 2.94 0.49 3.00 0.48 3.19C0.42 3.89 0.25 4.97 0.25 5.01ZM17.18 3.51C17.18 3.72 17.25 3.79 17.44 3.79L18.26 3.77C18.35 3.77 18.40 6.61 18.40 8.55L18.40 10.42C18.40 11.30 18.38 12.18 18.34 12.18L17.74 12.18C17.51 12.18 17.44 12.19 17.44 12.39C17.44 12.63 17.49 12.68 17.68 12.68C17.81 12.68 18.63 12.64 19.05 12.64C19.47 12.64 20.24 12.68 20.57 12.68C20.73 12.68 20.76 12.61 20.76 12.40C20.76 12.24 20.73 12.18 20.57 12.18L19.75 12.18C19.68 12.18 19.60 9.18 19.60 8.37C19.60 8.30 19.60 8.26 19.71 8.26C20.10 8.26 20.71 8.27 21 8.27C23.24 8.32 23.38 10.00 23.38 11.68L23.38 12.49C23.38 12.61 23.44 12.64 23.53 12.64C23.53 12.64 24.98 12.68 25.45 12.68C25.62 12.68 25.68 12.64 25.68 12.53C25.68 12.24 25.62 12.18 25.47 12.18L24.82 12.18C24.72 12.18 24.70 12.14 24.67 11.31C24.58 8.99 23.21 8.34 22.30 8.05C22.16 8.01 22.19 8.01 22.30 7.95C22.89 7.69 24.21 6.94 24.21 5.63C24.21 3.63 22.51 3.21 21.11 3.21C20.79 3.21 19.50 3.29 19.08 3.29C18.66 3.29 17.68 3.26 17.46 3.26C17.28 3.26 17.18 3.28 17.18 3.51ZM19.60 7.80L19.60 4.40C19.60 4.05 19.63 3.68 19.67 3.68C19.88 3.65 20.16 3.65 20.38 3.65C21.69 3.65 22.93 4.47 22.93 5.82C22.93 6.99 22.39 7.57 21.73 7.88C21.69 7.90 21.64 7.90 21.57 7.90C21.10 7.88 20.38 7.88 19.78 7.87C19.61 7.87 19.60 7.85 19.60 7.80ZM33.01 12.39C33.01 12.63 33.01 12.68 33.21 12.68C33.38 12.68 33.70 12.64 34.27 12.64C34.89 12.64 35.43 12.68 35.59 12.68C35.76 12.68 35.76 12.61 35.76 12.40C35.76 12.24 35.76 12.18 35.59 12.18L34.51 12.18C34.51 12.18 34.50 12.18 34.50 12.17C34.51 11.87 35.28 9.90 35.63 9.02C35.70 8.83 35.71 8.79 35.92 8.79L38.75 8.79C38.89 8.79 38.89 8.81 38.96 9.03C39.23 9.77 39.94 11.89 39.94 12.17C39.94 12.18 39.93 12.18 39.93 12.18L39.16 12.18C38.93 12.18 38.92 12.19 38.92 12.39C38.92 12.63 38.93 12.68 39.10 12.68C39.42 12.68 40.29 12.64 40.71 12.64C41.13 12.64 41.80 12.68 42.01 12.68C42.15 12.68 42.17 12.61 42.17 12.40C42.17 12.24 42.15 12.18 42.01 12.18L41.52 12.18C41.43 12.18 40.40 9.34 39.84 7.78L38.16 3.07C38.15 3.00 38.08 2.94 38.00 2.94C37.87 2.94 37.77 3.16 37.69 3.35C37.53 3.71 37.30 3.84 37.18 4.13L35.70 7.57C35.52 8.01 33.81 12.18 33.68 12.18L33.26 12.18C33.04 12.18 33.01 12.19 33.01 12.39ZM35.91 8.33C35.91 8.30 35.94 8.23 35.98 8.13L37.35 4.77C37.39 4.66 37.42 4.61 37.45 4.61C37.46 4.61 37.48 4.63 37.52 4.77L38.68 8.18C38.71 8.25 38.72 8.29 38.72 8.32C38.72 8.36 38.70 8.37 38.60 8.37L36.09 8.37C35.91 8.37 35.91 8.34 35.91 8.33ZM48.24 3.51C48.24 3.75 48.34 3.77 48.51 3.77L48.94 3.77C49.03 3.77 51.81 10.99 51.86 11.07C52.35 12.18 52.44 12.99 52.65 12.99C52.92 12.99 52.98 12.67 53.26 12.26C53.41 12.04 53.49 12.01 53.65 11.66L56.88 4.06C56.99 3.81 56.98 3.77 57.34 3.77C57.57 3.77 57.64 3.75 57.64 3.56C57.64 3.32 57.60 3.26 57.40 3.26C57.26 3.26 56.73 3.30 56.31 3.30C55.89 3.30 55.06 3.26 54.84 3.26C54.64 3.26 54.59 3.29 54.59 3.51C54.59 3.75 54.71 3.77 54.88 3.77L55.87 3.77C55.94 3.77 55.96 3.81 55.96 3.95C55.96 4.63 54.28 8.72 53.55 10.63C53.41 10.99 53.33 11.17 53.28 11.17C53.24 11.17 53.14 10.98 53.00 10.60C52.43 9.10 51.30 6.01 50.78 4.49C50.69 4.27 50.61 3.93 50.61 3.79L50.61 3.77L51.59 3.77C51.81 3.77 51.88 3.75 51.88 3.56C51.88 3.32 51.84 3.26 51.65 3.26C51.32 3.26 50.25 3.30 49.83 3.30C49.41 3.30 48.69 3.26 48.51 3.26C48.33 3.26 48.24 3.28 48.24 3.51ZM65.25 12.39C65.25 12.63 65.28 12.68 65.48 12.68C65.80 12.68 66.77 12.64 67.19 12.64C67.61 12.64 72.11 12.68 72.44 12.68C72.56 12.68 72.72 12.66 72.72 12.49C72.72 12.07 72.76 11.23 72.76 10.53C72.76 10.39 72.60 10.39 72.48 10.39C72.37 10.39 72.24 10.39 72.24 10.51C72.23 11.06 72.23 11.41 72.20 11.76C72.17 12.01 72.17 12.04 72.07 12.04C71.92 12.04 69.29 12.08 67.79 12.08C67.72 12.08 67.68 10.11 67.63 8.26C67.63 8.06 67.68 8.09 67.82 8.09L70.10 8.09C70.80 8.09 70.83 8.20 70.83 8.30L70.83 9.00C70.83 9.14 71.01 9.14 71.12 9.14C71.22 9.14 71.34 9.13 71.34 9.02C71.34 8.83 71.32 8.33 71.32 7.83C71.32 7.32 71.34 6.83 71.34 6.71C71.34 6.59 71.20 6.58 71.11 6.58C70.99 6.58 70.83 6.59 70.83 6.72L70.83 7.45C70.83 7.62 70.38 7.63 70.10 7.63L67.76 7.63C67.65 7.63 67.63 7.63 67.63 7.45C67.62 6.75 67.61 6.06 67.61 5.46C67.61 5.12 67.61 3.71 67.69 3.71C68.92 3.71 71.43 3.75 71.43 3.81C71.43 3.99 71.39 4.83 71.39 4.89C71.39 5.04 71.46 5.10 71.64 5.10C71.83 5.10 71.90 5.08 71.90 4.94C71.90 3.85 71.96 3.36 71.96 3.09C71.96 2.91 71.88 2.90 71.68 2.90C71.48 2.90 71.48 2.95 71.46 3.11C71.44 3.25 71.51 3.25 70.60 3.25C69.99 3.25 67.84 3.29 67.07 3.29C66.58 3.29 65.65 3.25 65.55 3.25C65.42 3.25 65.37 3.30 65.37 3.49C65.37 3.72 65.44 3.74 65.60 3.74L66.26 3.74C66.32 3.74 66.39 4.79 66.39 5.71C66.39 5.80 66.44 8.27 66.44 9.83L66.44 11.17C66.44 11.84 66.42 12.18 66.39 12.18L65.53 12.18C65.31 12.18 65.25 12.21 65.25 12.39ZM80.72 12.39C80.72 12.63 80.75 12.68 80.95 12.68C81.27 12.68 82.24 12.64 82.66 12.64C83.08 12.64 87.43 12.68 87.75 12.68C88.02 12.68 88.09 12.66 88.10 12.49C88.16 12.08 88.40 10.72 88.40 10.60C88.40 10.47 88.24 10.44 88.07 10.43C87.98 10.42 87.89 10.46 87.88 10.56L87.71 11.76C87.67 12.05 87.65 12.03 87.43 12.04C87.28 12.05 84.77 12.12 83.34 12.12C83.30 12.12 83.26 11.38 83.26 10.54L83.26 6.66C83.26 5.40 83.27 3.70 83.37 3.70L84.35 3.70C84.59 3.70 84.62 3.63 84.62 3.44C84.62 3.23 84.60 3.19 84.36 3.19C84.04 3.19 83.10 3.23 82.68 3.23C82.26 3.23 81.33 3.19 81.10 3.19C80.88 3.19 80.82 3.22 80.82 3.44C80.82 3.65 80.86 3.70 81.06 3.70L81.89 3.70C81.93 3.70 81.96 4.23 81.96 4.90L81.96 8.13C81.96 10.07 81.93 12.18 81.84 12.18L81.00 12.18C80.78 12.18 80.72 12.21 80.72 12.39ZM105.39 3.51C105.39 3.75 105.50 3.77 105.67 3.77L106.18 3.77C106.26 3.77 108.40 10.99 108.43 11.07C108.78 12.14 108.89 12.99 109.20 12.99C109.42 12.99 109.52 12.67 109.80 12.26C109.96 12.05 110.05 12.01 110.19 11.66L112.18 6.45C112.25 6.29 112.28 6.20 112.31 6.20C112.34 6.20 112.36 6.29 112.41 6.45C113.01 8.51 113.68 11.03 113.69 11.07C114.04 12.14 114.16 12.99 114.46 12.99C114.69 12.99 114.79 12.67 115.07 12.26C115.22 12.05 115.32 12.01 115.46 11.66L118.55 4.06C118.65 3.81 118.65 3.77 119.01 3.77C119.25 3.77 119.31 3.71 119.31 3.53C119.31 3.32 119.27 3.26 119.07 3.26C118.93 3.26 118.62 3.30 118.12 3.30C117.38 3.30 116.87 3.26 116.68 3.26C116.49 3.26 116.40 3.28 116.40 3.51C116.40 3.75 116.51 3.77 116.68 3.77L117.59 3.77C117.66 3.77 117.67 3.81 117.67 3.95C117.67 4.63 116.07 8.72 115.36 10.63C115.22 10.99 115.15 11.17 115.11 11.17C115.05 11.17 115.00 10.99 114.87 10.60C114.79 10.30 113.86 7.18 113.33 5.22C113.29 5.05 113.08 4.17 113.08 3.85C113.08 3.81 113.08 3.79 113.09 3.77L113.97 3.77C114.16 3.77 114.25 3.75 114.25 3.56C114.25 3.32 114.21 3.26 114.02 3.26C113.69 3.26 112.76 3.30 112.34 3.30C111.92 3.30 111.01 3.26 110.78 3.26C110.60 3.26 110.50 3.28 110.50 3.51C110.50 3.75 110.61 3.77 110.78 3.77L111.58 3.77C111.62 3.77 111.80 4.27 111.96 4.83C112.01 5.05 112.06 5.15 112.06 5.25C112.06 5.31 112.06 5.38 112.01 5.49L110.01 10.60C109.91 10.82 109.89 10.95 109.84 10.95C109.80 10.95 109.77 10.84 109.69 10.60C109.61 10.32 108.60 7.27 108.00 5.22C107.95 5.08 107.63 3.96 107.62 3.85C107.63 3.77 107.67 3.77 107.72 3.77L108.42 3.77C108.64 3.77 108.71 3.75 108.71 3.56C108.71 3.32 108.67 3.26 108.47 3.26C108.15 3.26 107.44 3.30 107.02 3.30C106.60 3.30 105.90 3.26 105.67 3.26C105.49 3.26 105.39 3.28 105.39 3.51ZM126.78 12.39C126.78 12.63 126.83 12.68 127.02 12.68C127.34 12.68 128.10 12.64 128.81 12.64C129.47 12.64 130.27 12.68 130.49 12.68C130.66 12.68 130.69 12.61 130.69 12.40C130.69 12.24 130.66 12.18 130.49 12.18L129.53 12.18C129.43 12.18 129.40 9.55 129.40 7.76L129.40 5.87C129.40 5.14 129.43 3.70 129.53 3.70L130.44 3.70C130.66 3.70 130.69 3.68 130.69 3.49C130.69 3.25 130.66 3.19 130.49 3.19C130.17 3.19 129.50 3.23 128.84 3.23C128.03 3.23 127.32 3.19 127.09 3.19C126.91 3.19 126.84 3.21 126.84 3.44C126.84 3.68 126.92 3.70 127.09 3.70L128.02 3.70C128.06 3.70 128.13 4.79 128.13 5.71L128.13 7.08C128.13 8.92 128.11 12.18 128.00 12.18L127.08 12.18C126.85 12.18 126.78 12.19 126.78 12.39ZM138.32 5.01C138.32 5.17 138.50 5.17 138.63 5.17C138.78 5.17 138.82 5.15 138.84 4.97L138.95 3.89C138.96 3.81 139.51 3.75 140.27 3.75L142.25 3.75C142.31 3.75 142.34 4.35 142.34 4.97C142.34 6.43 142.28 12.18 142.16 12.18L141.29 12.18C141.06 12.18 141.02 12.19 141.02 12.39C141.02 12.63 141.04 12.68 141.23 12.68C141.55 12.68 142.53 12.64 142.95 12.64C143.37 12.64 144.31 12.68 144.63 12.68C144.80 12.68 144.83 12.61 144.83 12.40C144.83 12.24 144.80 12.18 144.63 12.18L143.64 12.18C143.61 12.18 143.61 11.76 143.61 11.31C143.61 9.56 143.70 5.96 143.70 5.92C143.71 5.18 143.71 3.75 143.81 3.75L145.42 3.75C146.13 3.75 146.96 3.78 146.96 3.85C146.96 3.99 146.92 4.90 146.92 4.97C146.92 5.12 146.99 5.17 147.17 5.17C147.36 5.17 147.43 5.17 147.43 5.03C147.43 3.93 147.49 3.40 147.49 3.14C147.49 2.94 147.41 2.94 147.21 2.94C147.06 2.94 147.00 2.98 146.99 3.16C146.99 3.23 146.34 3.28 145.50 3.28L140.50 3.28C139.85 3.28 139.03 3.28 139.03 3.21L139.03 3.07C139.03 2.94 138.91 2.94 138.81 2.94C138.59 2.94 138.56 3.00 138.54 3.19C138.49 3.89 138.32 4.97 138.32 5.01ZM155.25 12.39C155.25 12.63 155.25 12.68 155.44 12.68C155.76 12.68 156.70 12.64 157.12 12.64C157.54 12.64 158.37 12.68 158.69 12.68C158.86 12.68 158.86 12.61 158.86 12.40C158.86 12.24 158.86 12.18 158.69 12.18L157.77 12.18C157.68 12.18 157.64 9.93 157.64 8.20C157.64 8.01 157.64 8.01 157.77 8.01L163.00 8.01C163.07 8.01 163.09 8.01 163.09 8.18L163.09 9.91C163.09 11.05 163.07 12.18 163.02 12.18L162.25 12.18C162.02 12.18 161.98 12.19 161.98 12.39C161.98 12.63 161.99 12.68 162.19 12.68C162.51 12.68 163.35 12.64 163.77 12.64C164.19 12.64 164.78 12.68 165.10 12.68C165.27 12.68 165.28 12.61 165.28 12.40C165.28 12.24 165.27 12.18 165.10 12.18L164.36 12.18C164.32 12.18 164.30 9.27 164.30 7.04C164.30 5.40 164.30 3.70 164.35 3.70L164.96 3.70C165.19 3.70 165.23 3.68 165.23 3.49C165.23 3.25 165.21 3.19 165.02 3.19C164.88 3.19 164.25 3.23 163.66 3.23C162.99 3.23 162.39 3.19 162.16 3.19C161.97 3.19 161.94 3.22 161.94 3.44C161.94 3.67 162.01 3.70 162.18 3.70L162.97 3.70C163.03 3.70 163.09 4.79 163.09 5.71L163.09 7.42C163.09 7.59 163.09 7.59 162.92 7.59L157.81 7.59C157.64 7.59 157.64 7.59 157.64 7.38C157.64 6.96 157.63 6.23 157.63 5.53C157.63 4.66 157.64 3.70 157.70 3.70L158.47 3.70C158.69 3.70 158.73 3.68 158.73 3.49C158.73 3.25 158.72 3.19 158.52 3.19C158.20 3.19 157.61 3.23 157.01 3.23C156.42 3.23 155.93 3.19 155.71 3.19C155.53 3.19 155.43 3.21 155.43 3.44C155.43 3.68 155.54 3.70 155.71 3.70L156.32 3.70C156.38 3.70 156.39 5.59 156.39 7.18L156.39 8.61C156.39 10.08 156.38 12.18 156.31 12.18L155.50 12.18C155.27 12.18 155.25 12.19 155.25 12.39ZM183.12 3.51C183.12 3.75 183.20 3.77 183.37 3.77L183.90 3.77C183.96 3.77 183.96 4.12 183.96 4.55C183.96 5.66 183.95 8.96 183.95 9.42C183.95 11.13 184.20 12.80 187.05 12.80C188.13 12.80 189.29 12.38 189.95 12.00C190.20 11.86 190.50 11.72 190.58 11.72C190.85 11.72 191.11 12.74 191.45 12.74C191.77 12.74 191.79 12.35 191.79 12.25C191.79 11.96 191.84 10.08 191.88 8.16C191.94 6.12 191.93 3.77 192.04 3.77L192.36 3.77C192.58 3.77 192.65 3.75 192.65 3.56C192.65 3.32 192.61 3.26 192.42 3.26C192.28 3.26 191.74 3.30 191.32 3.30C190.90 3.30 190.11 3.26 189.88 3.26C189.70 3.26 189.60 3.28 189.60 3.51C189.60 3.75 189.71 3.77 189.88 3.77L190.58 3.77C190.65 3.77 190.67 4.30 190.67 4.87L190.67 9.14C190.67 11.19 190.67 11.12 190.33 11.34C189.94 11.61 189.13 12.08 187.95 12.08C185.98 12.08 185.18 11.17 185.18 9.41C185.18 8.82 185.25 3.77 185.36 3.77L186.27 3.77C186.49 3.77 186.54 3.75 186.54 3.56C186.54 3.32 186.52 3.26 186.33 3.26C186.00 3.26 185.12 3.30 184.70 3.30C184.28 3.30 183.60 3.26 183.37 3.26C183.19 3.26 183.12 3.28 183.12 3.51ZM200.90 5.77C200.90 9.07 205.88 8.20 205.88 10.65C205.88 11.59 205.04 12.31 204.06 12.31C203.24 12.31 201.64 11.83 201.61 11.47L201.53 10.15C201.52 9.97 201.45 9.91 201.26 9.91L201.19 9.91C200.98 9.91 200.98 10.00 200.98 10.12C200.98 10.32 201.10 11.66 201.12 12.17C201.14 12.38 202.40 12.85 203.94 12.85C205.51 12.85 207.12 11.87 207.12 10.11C207.12 6.79 202.15 7.87 202.15 5.32C202.15 4.31 202.93 3.56 203.97 3.56C204.99 3.56 206.08 4.58 206.08 4.89C206.08 5.01 206.04 5.73 206.04 5.78C206.04 5.92 206.08 5.99 206.35 5.99C206.58 5.99 206.60 5.94 206.60 5.75C206.60 5.04 206.68 3.68 206.68 3.53C206.68 3.30 206.64 3.29 206.37 3.29C206.15 3.29 206.14 3.32 206.12 3.53C206.12 3.61 206.11 3.78 206.07 3.78C206.01 3.78 205.93 3.74 205.86 3.68C205.06 3.14 204.44 3.08 203.94 3.08C202.41 3.08 200.90 4.17 200.90 5.77Z"></path></g></svg>