<svg data-v-423bf9ae="" xmlns="http://www.w3.org/2000/svg" viewBox="0 0 315.73047138522156 60" class="font"><!----><!----><!----><g data-v-423bf9ae="" id="1389c299-76ca-4f52-88ed-64ec11cd5104" fill="black" transform="matrix(5.763608587456673,0,0,5.763608587456673,-1.5561799597929848,-0.057636318128110986)"><path d="M0.27 0.43L0.27 2.73L0.41 2.73C0.43 0.59 2.10 0.57 2.74 0.57L3.85 0.57L3.85 9.10C3.85 10.01 3.51 10.14 2.93 10.14L2.93 10.29L5.84 10.29L5.84 10.14C5.25 10.14 4.91 10.01 4.91 9.10L4.91 0.57L6.02 0.57C6.31 0.57 8.33 0.59 8.36 2.73L8.51 2.73L8.51 0.43ZM11.61 3.72C10.92 3.72 10.01 4.27 9.60 5.10L9.60 3.70L7.94 4.02L7.94 4.16C8.53 4.23 8.64 4.44 8.64 4.91L8.64 9.20C8.64 9.91 8.61 9.98 8.08 10.14L8.08 10.29L10.18 10.29L10.18 10.14C9.67 10.01 9.60 9.97 9.60 9.20L9.60 5.40C10.01 4.42 11.13 3.99 11.06 4.27C11.02 4.42 11.05 4.59 11.13 4.73C11.34 5.04 11.75 5.12 12.04 4.93C12.35 4.73 12.43 4.34 12.24 4.03C12.08 3.82 11.83 3.72 11.61 3.72ZM16.24 6.78C16.24 6.78 16.24 8.95 16.24 8.95C16.09 9.28 15.72 9.90 14.85 9.90C14.03 9.90 13.65 9.31 13.65 8.71C13.65 7.80 14.49 7.20 16.24 6.78ZM17.85 9.86C17.23 9.86 17.25 9.02 17.25 9.02L17.25 6.50C17.25 4.83 16.87 3.70 15.50 3.70C15.50 3.70 14.83 3.67 14.24 3.96C13.50 4.37 13.23 4.80 13.15 5.00C13.06 5.18 13.09 5.42 13.23 5.60C13.43 5.87 13.79 5.89 14.03 5.70C14.28 5.49 14.34 5.12 14.13 4.87C14.03 4.75 13.89 4.69 13.75 4.66C13.66 4.65 13.76 4.35 14.36 4.07C15.55 3.54 16.24 4.40 16.24 5.84L16.24 6.62C13.87 7.24 12.68 7.63 12.68 8.96C12.68 10.42 14.27 10.42 14.27 10.42C15.25 10.42 16.04 9.91 16.24 9.21C16.28 10.46 17.32 10.42 17.32 10.42C17.98 10.42 18.35 9.90 18.44 9.48L18.30 9.42C18.20 9.86 17.85 9.86 17.85 9.86ZM22.75 3.82L22.75 3.96C24.29 3.96 23.60 5.71 23.60 5.71L22.37 9.10L20.45 4.90C20.45 4.90 19.96 3.96 20.97 3.96L20.97 3.82L18.27 3.82L18.27 3.96C18.49 3.99 18.90 3.98 19.25 4.66C19.25 4.66 19.46 5.04 21.94 10.42L22.05 10.42L23.81 5.59C24.47 3.98 24.81 3.96 25.44 3.96L25.44 3.82ZM26.59 6.76C26.59 4.80 27.62 3.85 28.42 3.85C29.04 3.85 30.11 4.59 30.11 6.76ZM30.73 8.61C30.51 9.32 29.60 9.95 28.70 9.91C27.52 9.86 26.61 9.07 26.59 6.93L31.07 6.93C31.07 4.72 29.88 3.70 28.43 3.70C26.81 3.70 25.51 5.01 25.51 7.13C25.51 9.09 26.75 10.42 28.45 10.42C29.99 10.42 30.74 9.28 30.84 8.65ZM34.19 10.14C33.68 10.01 33.61 9.97 33.61 9.20L33.61 0.01L31.95 0.32L31.95 0.48C32.54 0.53 32.65 0.73 32.65 1.22L32.65 9.20C32.65 9.91 32.62 9.98 32.09 10.14L32.09 10.29L34.19 10.29L34.19 10.14ZM38.71 6.78C38.71 6.78 38.71 8.95 38.71 8.95C38.56 9.28 38.19 9.90 37.32 9.90C36.50 9.90 36.12 9.31 36.12 8.71C36.12 7.80 36.96 7.20 38.71 6.78ZM40.32 9.86C39.70 9.86 39.72 9.02 39.72 9.02L39.72 6.50C39.72 4.83 39.34 3.70 37.97 3.70C37.97 3.70 37.30 3.67 36.71 3.96C35.97 4.37 35.70 4.80 35.62 5.00C35.53 5.18 35.56 5.42 35.70 5.60C35.90 5.87 36.26 5.89 36.50 5.70C36.75 5.49 36.81 5.12 36.60 4.87C36.50 4.75 36.36 4.69 36.22 4.66C36.13 4.65 36.23 4.35 36.83 4.07C38.02 3.54 38.71 4.40 38.71 5.84L38.71 6.62C36.34 7.24 35.15 7.63 35.15 8.96C35.15 10.42 36.74 10.42 36.74 10.42C37.72 10.42 38.51 9.91 38.71 9.21C38.75 10.46 39.79 10.42 39.79 10.42C40.45 10.42 40.82 9.90 40.91 9.48L40.77 9.42C40.67 9.86 40.32 9.86 40.32 9.86ZM47.57 10.15C47.07 10.02 47.00 9.97 47.00 9.20L47.00 5.98C47.00 4.30 46.13 3.70 44.98 3.70C44.10 3.70 43.19 4.35 42.91 5.14L42.91 3.70L41.24 4.02L41.24 4.16C41.83 4.24 41.94 4.44 41.94 4.93L41.94 9.20C41.94 9.91 41.92 9.98 41.38 10.14L41.38 10.29L43.48 10.29L43.48 10.14C42.98 10.01 42.91 9.97 42.91 9.20L42.91 5.46C43.08 4.98 43.65 4.23 44.45 4.23C45.49 4.23 46.05 4.94 46.05 6.03L46.05 9.20C46.05 9.91 46.02 10.00 45.49 10.15L45.49 10.29L47.57 10.29L47.57 10.15ZM53.38 8.41C53.38 9.39 52.63 10.05 51.72 10.05C50.46 10.05 49.63 8.95 49.63 6.75C49.63 4.44 50.81 3.85 51.69 3.85C52.56 3.85 53.38 4.58 53.38 5.73ZM55.05 10.02C54.49 10.05 54.33 10.01 54.33 9.32L54.33 0.01L52.67 0.32L52.67 0.48C53.24 0.53 53.38 0.74 53.38 1.23L53.38 4.26C52.93 3.92 52.35 3.70 51.65 3.70C49.83 3.70 48.44 4.84 48.44 6.99C48.44 8.81 49.35 10.42 51.37 10.42C52.08 10.42 52.96 10.09 53.38 9.44L53.38 10.15C53.38 10.15 53.38 10.47 53.77 10.40L55.05 10.16Z"></path></g><!----><!----></svg>